<svg width="20" height="20" viewBox="0 0 20 20" fill="none" xmlns="http://www.w3.org/2000/svg">
<path d="M6.50391 10.9961C6.43359 10.9961 6.36719 10.9844 6.30469 10.9609C6.24609 10.9336 6.19336 10.8984 6.14648 10.8555C6.10352 10.8086 6.06836 10.7559 6.04102 10.6973C6.01367 10.6348 6 10.5684 6 10.498C6 10.4277 6.01367 10.3633 6.04102 10.3047C6.06836 10.2422 6.10352 10.1895 6.14648 10.1465C6.19336 10.0996 6.24609 10.0645 6.30469 10.041C6.36719 10.0137 6.43359 10 6.50391 10H13.5C13.5703 10 13.6348 10.0137 13.6934 10.041C13.7559 10.0645 13.8086 10.0996 13.8516 10.1465C13.8984 10.1895 13.9355 10.2422 13.9629 10.3047C13.9902 10.3633 14.0039 10.4277 14.0039 10.498C14.0039 10.5684 13.9902 10.6348 13.9629 10.6973C13.9355 10.7559 13.8984 10.8086 13.8516 10.8555C13.8086 10.8984 13.7559 10.9336 13.6934 10.9609C13.6348 10.9844 13.5703 10.9961 13.5 10.9961H6.50391Z" fill="currentColor"/>
</svg>
