<svg width="20" height="20" viewBox="0 0 20 20" fill="none" xmlns="http://www.w3.org/2000/svg">
<path d="M4.58859 4.71569L4.64645 4.64645C4.82001 4.47288 5.08944 4.4536 5.28431 4.58859L5.35355 4.64645L10 9.293L14.6464 4.64645C14.8417 4.45118 15.1583 4.45118 15.3536 4.64645C15.5488 4.84171 15.5488 5.15829 15.3536 5.35355L10.707 10L15.3536 14.6464C15.5271 14.82 15.5464 15.0894 15.4114 15.2843L15.3536 15.3536C15.18 15.5271 14.9106 15.5464 14.7157 15.4114L14.6464 15.3536L10 10.707L5.35355 15.3536C5.15829 15.5488 4.84171 15.5488 4.64645 15.3536C4.45118 15.1583 4.45118 14.8417 4.64645 14.6464L9.293 10L4.64645 5.35355C4.47288 5.17999 4.4536 4.91056 4.58859 4.71569L4.64645 4.64645L4.58859 4.71569Z" fill="currentColor"/>
</svg>
