<svg width="20" height="20" viewBox="0 0 20 20" fill="none" xmlns="http://www.w3.org/2000/svg">
<path d="M17 8.5C17 11.5376 14.5376 14 11.5 14C10.1612 14 8.93414 13.5217 7.98038 12.7266L3.85355 16.8536C3.65829 17.0488 3.34171 17.0488 3.14645 16.8536C2.97288 16.68 2.95359 16.4106 3.08859 16.2157L3.14645 16.1464L7.27344 12.0196C6.47834 11.0659 6 9.83879 6 8.5C6 5.46243 8.46243 3 11.5 3C14.5376 3 17 5.46243 17 8.5ZM16 8.5C16 6.01472 13.9853 4 11.5 4C9.01472 4 7 6.01472 7 8.5C7 10.9853 9.01472 13 11.5 13C13.9853 13 16 10.9853 16 8.5Z" fill="currentColor"/>
</svg>
