<svg width="20" height="20" viewBox="0 0 20 20" fill="none" xmlns="http://www.w3.org/2000/svg">
<path fill-rule="evenodd" clip-rule="evenodd" d="M16.78 3.33921C17.1586 3.28097 17.5 3.57389 17.5 3.95695V8.99994H10V4.38228L16.78 3.33921ZM9 4.53613L3.02996 5.4546C2.72507 5.50151 2.5 5.76385 2.5 6.07233V8.99994H9V4.53613ZM1.25 9.37494V6.07233C1.25 5.14688 1.92521 4.35985 2.83989 4.21913L16.5899 2.10375C17.7257 1.92901 18.75 2.80779 18.75 3.95695V16.0429C18.75 17.1921 17.7257 18.0709 16.5899 17.8961L2.83989 15.7807C1.92521 15.64 1.25 14.853 1.25 13.9275V9.37494ZM2.5 9.99994H9V15.4637L3.02996 14.5453C2.72507 14.4984 2.5 14.236 2.5 13.9275V9.99994ZM10 15.6176L16.78 16.6607C17.1586 16.7189 17.5 16.426 17.5 16.0429V9.99994H10V15.6176Z" fill="currentColor"/>
</svg>
