<svg width="20" height="20" viewBox="0 0 20 20" fill="none" xmlns="http://www.w3.org/2000/svg">
<path fill-rule="evenodd" clip-rule="evenodd" d="M12.5263 5.69149C13.4571 5.22611 13.75 4.7283 13.75 4.375C13.75 4.0217 13.4571 3.52389 12.5263 3.05851C11.6204 2.60558 10.2883 2.29167 8.75 2.29167C7.21171 2.29167 5.87957 2.60558 4.9737 3.05851C4.04295 3.52389 3.75 4.0217 3.75 4.375C3.75 4.7283 4.04295 5.22611 4.9737 5.69149C5.87957 6.14442 7.21171 6.45833 8.75 6.45833C10.2883 6.45833 11.6204 6.14442 12.5263 5.69149ZM2.5 14.1433V4.375C2.5 2.64911 5.29822 1.25 8.75 1.25C12.2018 1.25 15 2.64911 15 4.375V7.5H13.75V6.2503C12.6097 7.00916 10.7945 7.5 8.75 7.5C6.7055 7.5 4.89029 7.00916 3.75 6.2503V14.1433C3.75 14.8566 4.26419 15.608 5.23871 16.2158C5.29079 16.2483 5.34385 16.2802 5.39783 16.3113C5.19198 16.6691 5.05801 17.0716 5.01501 17.5C4.86002 17.4189 4.70985 17.3331 4.56522 17.2429C3.4176 16.527 2.5 15.4498 2.5 14.1433ZM12.5 12.3933C13.2282 12.1359 13.75 11.4414 13.75 10.625C13.75 9.58947 12.9105 8.75 11.875 8.75C10.8395 8.75 10 9.58947 10 10.625C10 11.4414 10.5218 12.1359 11.25 12.3933V13.75H9.375C8.33947 13.75 7.5 14.5895 7.5 15.625V16.3567C6.77175 16.6141 6.25 17.3086 6.25 18.125C6.25 19.1605 7.08947 20 8.125 20C9.16053 20 10 19.1605 10 18.125C10 17.3086 9.47825 16.6141 8.75 16.3567V15.625C8.75 15.2798 9.02982 15 9.375 15H11.875H12.5H14.375C14.7202 15 15 15.2798 15 15.625V16.3567C14.2718 16.6141 13.75 17.3086 13.75 18.125C13.75 19.1605 14.5895 20 15.625 20C16.6605 20 17.5 19.1605 17.5 18.125C17.5 17.3086 16.9782 16.6141 16.25 16.3567V15.625C16.25 14.5895 15.4105 13.75 14.375 13.75H12.5V12.3933Z" fill="currentColor"/>
</svg>
